<svg id="Capa_1" enable-background="new 0 0 512 512" height="512" viewBox="0 0 512 512" width="512" xmlns="http://www.w3.org/2000/svg"><g><path d="m512 256c0 141.38-114.62 256-256 256s-256-114.62-256-256c0-46.22 12.25-89.57 33.68-127 44.12-77.07 127.16-129 222.32-129s178.2 51.93 222.32 129c21.43 37.43 33.68 80.78 33.68 127z" fill="#22d7ff"/><path d="m512 256c0 98.22-55.32 183.53-136.51 226.46h-.01c-35.21 18.62-75.28 29.26-117.82 29.53-.55.01-1.11.01-1.66.01s-1.1 0-1.65-.01c-42.54-.26-82.62-10.91-117.83-29.53-81.19-42.92-136.52-128.23-136.52-226.46 0-46.22 12.25-89.57 33.68-127 32.44 56.67 85.92 99.75 149.8 118.58 22.99 6.78 47.33 10.42 72.52 10.42s49.53-3.64 72.52-10.42c63.88-18.83 117.36-61.91 149.8-118.58 21.43 37.43 33.68 80.78 33.68 127z" fill="#00b3ff"/><g><path d="m375.49 482.46c-24.72 13.07-51.83 22.21-80.52 26.59-12.18 1.86-24.63 2.86-37.31 2.94h-3.31c-13.71-.08-27.16-1.25-40.28-3.41-27.59-4.54-53.69-13.5-77.55-26.12l4.5-105.12 5.56-129.76h218.84l5.49 128z" fill="#cff6ff"/><path d="m375.48 482.46c-24.72 13.07-51.83 22.21-80.51 26.59-12.18 1.86-24.63 2.86-37.31 2.94h-1.66v-264.41h109.42l5.48 128.01z" fill="#b0edf7"/><path d="m365.42 247.58h-218.84l-5.56 129.76c3.84 4.22 8.1 8.06 12.72 11.46 9.71 7.13 15.77 18.08 16.61 30.1.08.96.11 1.94.11 2.9v20.88c0 13.96 5.76 26.83 15.29 36.01 1.16 3.87 2.83 7.59 4.97 11.05 5.47 8.81 13.6 15.32 23.35 18.84 13.12 2.16 26.57 3.33 40.28 3.41h3.31c12.68-.08 25.13-1.08 37.31-2.94 10.34-3.4 18.97-10.1 24.69-19.31 2.14-3.46 3.81-7.18 4.98-11.05 9.52-9.18 15.28-22.04 15.28-36.01v-20.88c0-13.16 6.09-25.19 16.7-32.99 5.26-3.86 10.05-8.31 14.29-13.23z" fill="#b0edf7"/><path d="m370.91 375.58-.01.01c-4.24 4.92-9.02 9.36-14.28 13.22-10.61 7.8-16.7 19.83-16.7 32.99v20.88c0 13.97-5.76 26.83-15.28 36.01-1.17 3.87-2.84 7.59-4.98 11.05-5.72 9.21-14.35 15.91-24.69 19.31-12.18 1.86-24.63 2.86-37.31 2.94h-1.66v-264.41h109.42z" fill="#91dde5"/><g><g><g><g><path d="m179.551 184.113c-3.705 28.53-19.851 55.2-46.343 71.336-26.477 16.127-57.582 18.236-84.631 8.438 3.704-28.53 19.86-55.185 46.336-71.311 26.493-16.135 57.589-18.26 84.638-8.463z" fill="#d1f6ff"/></g><path d="m114.349 129.18-21.788-48.22c-2.847-6.302-12.275-4.271-12.275 2.645v49.182c0 30.384 24.631 55.014 55.014 55.014h120.7v-41.707h-115.447c-11.3 0-21.551-6.618-26.204-16.914z" fill="#464f6e"/></g><g><g><path d="m332.449 184.113c3.705 28.53 19.851 55.2 46.343 71.336 26.477 16.127 57.582 18.236 84.632 8.438-3.704-28.53-19.86-55.185-46.336-71.311-26.494-16.135-57.59-18.26-84.639-8.463z" fill="#b0edf7"/></g><path d="m397.651 129.18 21.788-48.22c2.847-6.302 12.276-4.271 12.276 2.645v49.182c0 30.384-24.631 55.014-55.014 55.014h-120.701v-41.707h115.447c11.3 0 21.552-6.618 26.204-16.914z" fill="#303c5a"/></g></g><g><path d="m370.22 251.54v1.37c0 28.21-4.29 56.1-12.58 82.75-3.45 11.08-10.43 20.72-19.79 27.59-17.98 13.22-29.64 34.52-29.64 58.55v7.82h-106.04v-7.82c0-1.75-.06-3.49-.19-5.21-1.54-21.88-12.78-41.08-29.45-53.34-9.33-6.85-16.32-16.47-19.77-27.53-.02-.06-.04-.14-.06-.2-5.51-17.71-9.24-35.96-11.11-54.49l.51-1.34c21.37-56.5 60.83-104.35 112.22-136.09l10.79-6.67c7.36.64 14.52 1.96 21.41 3.91 10.14 2.86 19.7 7.07 28.5 12.44l55.11 94.16c.07 1.37.09 2.73.09 4.1z" fill="#fff"/><path d="m370.22 251.54v1.37c0 28.21-4.29 56.1-12.58 82.75-3.45 11.08-10.43 20.72-19.79 27.59-17.98 13.22-29.64 34.52-29.64 58.55v7.82h-52.21v-293.11c3.07.02 6.11.16 9.11.42 7.36.64 14.52 1.96 21.41 3.91 10.14 2.86 19.7 7.07 28.5 12.44l55.11 94.16c.07 1.37.09 2.73.09 4.1z" fill="#cff6ff"/><path d="m286.52 140.84v288.78h-61.04v-265.52c9.12-7.42 18.75-14.27 28.84-20.5l10.79-6.67c7.36.64 14.52 1.96 21.41 3.91z" fill="#cff6ff"/><path d="m286.52 140.84v288.78h-30.52v-287.06l9.11-5.63c7.36.64 14.52 1.96 21.41 3.91z" fill="#b0edf7"/><g><path d="m282.82 479.5c-3.25.61-6.6.93-10.02.93h-35.22c-3.42 0-6.77-.32-10.01-.93-17.93-3.39-15.22-29.97 3.03-29.97h49.19c18.24 0 20.96 26.58 3.03 29.97z" fill="#ffa87a"/><path d="m282.82 479.5c-3.25.61-6.6.93-10.02.93h-16.8v-30.9h23.79c18.24 0 20.96 26.58 3.03 29.97z" fill="#e3835a"/><path d="m308.21 416.52v26.16c0 10.13-8.22 18.35-18.36 18.35h-69.32c-10.14 0-18.35-8.22-18.35-18.35v-26.16c0-22.04 17.86-39.91 39.9-39.91h26.22c22.04 0 39.91 17.87 39.91 39.91z" fill="#ffc0a4"/><path d="m308.21 416.52v26.16c0 10.13-8.22 18.35-18.36 18.35h-33.85v-84.42h12.3c22.04 0 39.91 17.87 39.91 39.91z" fill="#ffa87a"/><ellipse cx="233.105" cy="428.158" fill="#66444e" rx="14.771" ry="14.771" transform="matrix(.186 -.983 .983 .186 -230.877 577.752)"/><ellipse cx="279.65" cy="428.158" fill="#593c43" rx="14.771" ry="14.771" transform="matrix(.644 -.765 .765 .644 -227.978 366.211)"/></g><g fill="#22273b"><ellipse cx="215.43" cy="303.213" rx="14.771" ry="14.771" transform="matrix(.707 -.707 .707 .707 -151.306 241.141)"/><ellipse cx="294.422" cy="303.213" rx="14.771" ry="14.771" transform="matrix(.231 -.973 .973 .231 -68.649 519.55)"/></g></g></g><path d="m265.112 136.934c-.877 5.296-2.822 10.402-5.835 14.863-5.952 8.816-16.448 15.011-20.962 24.768-6.311 13.615 1.004 23.901 1.882 37.464 1.068 16.575-5.275 22.886-14.715 25.402-11.396 3.044-27.305.539-40.106 3.837-18.922 4.884-27.231 27.421-43.785 37.759-.951-9.313-1.427-18.7-1.427-28.119 0-24.324 7.601-47.104 20.55-65.952 15.328-22.336 38.172-39.144 64.768-46.449 9.725-2.664 19.968-4.07 30.518-3.996 3.066.022 6.11.159 9.112.423z" fill="#303c5a"/><path d="m265.112 136.934c-.877 5.296-2.822 10.402-5.835 14.863-5.952 8.816-16.448 15.011-20.962 24.768-6.311 13.615 1.004 23.901 1.882 37.464 1.068 16.575-5.275 22.886-14.715 25.402v-98.923c9.725-2.664 19.968-4.07 30.518-3.996 3.066.021 6.11.158 9.112.422z" fill="#22273b"/><g><path d="m321.53 393.899c3.84-1.73 6.168-4.92 7.355-8.771z" fill="none"/></g><path d="m370.134 247.443c-9.884.983-20.391-3.467-24.588-12.4-3.848-8.203-2.378-18.933-8.742-25.381-6.829-6.945-19.334-5.243-26.11-12.241-7.125-7.357-3.89-19.461-.042-28.954 1.913-4.746 3.795-10.074 4.366-15.191 7.833 4.778 15.053 10.465 21.512 16.924 19.915 19.917 32.558 47.105 33.604 77.243z" fill="#22273b"/></g><path d="m512 256c0 141.38-114.62 256-256 256s-256-114.62-256-256c0-46.22 12.25-89.57 33.68-127 44.12-77.07 127.16-129 222.32-129s178.2 51.93 222.32 129c21.43 37.43 33.68 80.78 33.68 127z" fill="none"/><g><ellipse cx="116.834" cy="370.75" fill="#fff" rx="58.23" ry="58.23" transform="matrix(.707 -.707 .707 .707 -227.94 191.205)"/><g><path d="m70.262 360.337c-.641 4.339-.487 8.846 2.845 12.112 3.034 2.974 7.889 3.913 11.814 2.285 4.224-1.751 6.871-5.88 9.423-9.674s5.659-7.744 10.121-8.742c3.197-.715 6.505.238 9.64 1.191 3.134.953 6.433 1.924 9.637 1.242 4.46-.948 7.571-5.966 6.15-10.259-1.408-4.252-5.271-7.955-4.64-12.737.314-2.376 1.205-4.724.911-7.103-.449-3.638-3.695-6.47-7.238-7.409-3.544-.938-7.313-.316-10.846.664-11.171 3.098-21.754 10.102-29.114 19.035-3.701 4.492-6.682 9.714-7.946 15.435-.281 1.277-.558 2.611-.757 3.96z" fill="#85ef47"/><path d="m116.236 328.444c-.716-1.073-1.73-1.944-2.929-2.425-4.797-1.926-12.147 3.11-10.816 8.495 2.078 8.409 14.094 5.984 14.854-1.853.144-1.481-.284-2.983-1.109-4.217z" fill="#02bd57"/><path d="m75.655 360.907c-.323 3.333.409 7.316 3.421 8.778 2.372 1.152 5.328.201 7.285-1.566 1.958-1.767 3.15-4.202 4.362-6.544s2.555-4.731 4.692-6.275c2.063-1.491 4.779-2.127 6.384-4.103 1.945-2.394 1.477-6.189-.592-8.478-2.069-2.288-5.361-3.187-8.436-2.94-9.662.777-16.26 12.297-17.116 21.128z" fill="#02bd57"/><path d="m117.314 343.11c-2.743.111-5.172 2.605-5.211 5.35s2.319 5.306 5.057 5.495 5.425-2.025 5.764-4.749c.338-2.724-1.725-5.528-4.427-6.015" fill="#02bd57"/><path d="m140.595 390.444c-1.05-.942-2.285-1.661-3.681-2.06-5.911-1.691-11.834 2.464-17.951 3.076-6.267.627-12.205-2.48-18.108-4.676-7.721-2.872-19.651-3.664-21.101 6.882-1.276 9.284 6.813 18.384 14.309 22.387 14.829 7.92 46.041 7.237 50.284-13.77.855-4.238-.624-9.031-3.752-11.839z" fill="#85ef47"/><path d="m132.493 341.751c.848 4.224 3.654 7.734 6.056 11.31s4.546 7.77 3.801 12.013c-.713 4.065-3.948 7.319-4.786 11.36-1.14 5.499 2.898 11.308 8.278 12.916 5.381 1.608 11.468-.579 15.279-4.703 3.812-4.125 5.519-9.889 5.521-15.505.001-5.616-1.572-11.125-3.635-16.348-2.234-5.658-5.124-11.176-9.437-15.465-3.248-3.229-9.723-7.874-14.687-6.934-4.752.9-7.27 6.973-6.39 11.356z" fill="#85ef47"/><path d="m116.224 363.755c.516.192 1.047.341 1.598.426 3.701.569 7.326-1.919 11.05-1.521 3.542.378 6.445 3.525 7.033 7.038s-.9 7.181-3.41 9.708-5.931 4.004-9.427 4.685c-7.644 1.489-18.122-.651-23.859-6.221-2.963-2.877-4.472-9.306-1.627-12.78 2.902-3.544 8.144-5.896 12.629-4.303 2.104.747 3.948 2.2 6.013 2.968z" fill="#85ef47"/><g fill="#02bd57"><path d="m69.457 387.921c2.24 1.46 5.494 1.048 7.343-.883 3.487-3.642.63-11.017-4.741-10.359-5.146.63-6.913 8.431-2.602 11.242z"/><path d="m121.838 378.534c1.84-.83 3.063-2.33 3.039-4.778-.025-2.505-2.248-4.786-4.752-4.874-1.812-.064-3.573.869-5.376.671-1.558-.171-2.886-1.153-4.18-2.038-1.293-.885-2.759-1.737-4.32-1.592-6.314.587-2.499 8.96.502 10.904 2.886 1.87 10.722 3.675 15.087 1.707z"/><path d="m129.237 373.187c1.812.065 3.439-1.813 3.227-3.586-.177-1.48-1.556-2.718-3.046-2.736-1.623-.02-3.216 1.516-3.3 3.135-.084 1.615 1.588 3.132 3.119 3.187z"/><path d="m89.601 389.383c2.92-.986 6.403.023 8.344 2.417 1.676 2.068 2.483 5.176 5.014 5.997 1.897.615 3.907-.393 5.897-.53 4.128-.285 7.817 3.664 7.888 7.801s-2.934 7.948-6.753 9.54-8.249 1.214-12.109-.276c-5.288-2.041-9.662-6.209-12.167-11.271-1.077-2.175-2.335-4.934-1.635-7.366.772-2.686 2.827-5.402 5.521-6.312z"/><path d="m119.701 409.036c-.79 1.067-.986 2.547-.5 3.782.615 1.564 2.212 2.595 3.868 2.882 1.656.288 3.361-.069 4.947-.627 3.912-1.375 7.371-4.005 9.742-7.406.688-.987 1.3-2.077 1.423-3.273s-.344-2.519-1.389-3.115c-1.434-.818-3.216-.026-4.667.762-2.51 1.363-5.021 2.725-7.531 4.088-1.774.963-4.671 1.256-5.893 2.907z"/><path d="m124.647 401.999c1.071-.457 1.905-1.428 2.215-2.55.972-3.508-3.545-7.049-6.172-4.066-2.636 2.994-.262 8.415 3.957 6.616z"/><path d="m139.223 341.145c-.057 2.61 1.249 5.94 2.354 7.956 1.764 3.22 3.074 5.674 3.615 9.247.435 2.869.902 6.57 3.254 8.562 2.816 2.385 6.302 1.582 8.427-1.255 1.799-2.402 1.571-5.97 1.331-8.858-.546-6.572-3.803-12.941-8.982-17.059-1.341-1.066-2.847-2.009-4.536-2.295-4.065-.688-5.407 1.167-5.463 3.702z"/><path d="m147.353 371.775c-3.489-2.372-8.333.616-7.803 5.157.183 1.571.906 3.1 2.109 4.126 5.151 4.392 10.371-4.012 6.857-8.218-.361-.433-.753-.786-1.163-1.065z"/><path d="m153.209 378.243c1.175-.639 2.405-1.326 3.156-2.563.691-1.137.877-2.583.984-3.973s.161-2.822.645-4.098 1.523-2.38 2.713-2.335c.947.036 1.794.8 2.266 1.763.472.962.619 2.097.653 3.207.181 5.836-2.871 11.558-7.285 14.182-1.824 1.084-5.166 2.508-6.493-.212-1.4-2.872 1.524-4.971 3.361-5.971z"/></g></g></g></g></svg>